<svg fill="#000000" version="1.1" id="Capa_1" xmlns="http://www.w3.org/2000/svg" xmlns:xlink="http://www.w3.org/1999/xlink" viewBox="0 0 541.001 541.001" xml:space="preserve"><g id="SVGRepo_bgCarrier" stroke-width="0"></g><g id="SVGRepo_tracerCarrier" stroke-linecap="round" stroke-linejoin="round"></g><g id="SVGRepo_iconCarrier"> <g> <g> <path d="M270.501,338.016c-24.358,0-44.173,19.817-44.173,44.176v73.794c0,2.694,0.256,5.43,0.758,8.135 c0.414,2.214,2.346,3.819,4.598,3.819h77.633c2.254,0,4.188-1.606,4.599-3.823c0.502-2.704,0.755-5.44,0.755-8.131v-73.795 C314.673,357.833,294.856,338.016,270.501,338.016z M305.319,455.985c0,0.861-0.033,1.729-0.099,2.601h-69.44 c-0.065-0.872-0.099-1.738-0.099-2.601v-73.794c0-19.199,15.62-34.82,34.819-34.82c19.197,0,34.818,15.621,34.818,34.82V455.985 L305.319,455.985z"></path> <path d="M252.678,308.521h35.646c2.25,0,4.184-1.604,4.598-3.814c0.259-1.393,0.39-2.805,0.39-4.2v-33.881 c0-12.58-10.23-22.814-22.811-22.814s-22.812,10.233-22.812,22.814v33.881c0,1.396,0.131,2.811,0.392,4.2 C248.494,306.917,250.426,308.521,252.678,308.521z M257.043,266.623c0-7.421,6.037-13.459,13.458-13.459 s13.457,6.039,13.457,13.459v32.544h-26.915V266.623L257.043,266.623z"></path> <path d="M252.678,215.425h35.646c2.25,0,4.184-1.604,4.598-3.818c0.259-1.391,0.39-2.805,0.39-4.2v-33.883 c0-12.578-10.23-22.812-22.811-22.812s-22.812,10.234-22.812,22.812v33.883c0,1.396,0.131,2.809,0.392,4.2 C248.494,213.819,250.426,215.425,252.678,215.425z M257.043,173.523c0-7.421,6.037-13.458,13.458-13.458 s13.457,6.037,13.457,13.458v32.547h-26.915V173.523L257.043,173.523z"></path> <path d="M159.287,383.539c-10,0-18.133,8.135-18.133,18.135v25.145c0,1.11,0.104,2.23,0.309,3.337 c0.414,2.217,2.345,3.82,4.598,3.82h26.453c2.254,0,4.188-1.606,4.599-3.823c0.204-1.105,0.31-2.228,0.31-3.334v-25.145 C177.422,391.673,169.285,383.539,159.287,383.539z M168.068,424.618h-17.56v-22.946c0-4.84,3.937-8.78,8.779-8.78 c4.84,0,8.781,3.938,8.781,8.78V424.618L168.068,424.618z"></path> <path d="M159.287,314.451c-10,0-18.133,8.135-18.133,18.133v25.146c0,1.108,0.104,2.23,0.309,3.336 c0.414,2.215,2.345,3.819,4.598,3.819h26.453c2.254,0,4.188-1.607,4.599-3.822c0.204-1.104,0.31-2.228,0.31-3.333v-25.146 C177.422,322.585,169.285,314.451,159.287,314.451z M168.068,355.532h-17.56v-22.948c0-4.84,3.937-8.779,8.779-8.779 c4.84,0,8.781,3.938,8.781,8.779V355.532L168.068,355.532z"></path> <path d="M159.287,243.811c-10,0-18.133,8.135-18.133,18.135v25.146c0,1.108,0.104,2.229,0.309,3.336 c0.414,2.215,2.345,3.82,4.598,3.82h26.453c2.254,0,4.188-1.608,4.599-3.825c0.204-1.105,0.31-2.227,0.31-3.331v-25.145 C177.422,251.945,169.285,243.811,159.287,243.811z M168.068,284.888h-17.56v-22.945c0-4.84,3.937-8.781,8.779-8.781 c4.84,0,8.781,3.939,8.781,8.781V284.888L168.068,284.888z"></path> <path d="M381.713,383.539c-10,0-18.136,8.135-18.136,18.135v25.145c0,1.104,0.104,2.226,0.311,3.334 c0.411,2.217,2.346,3.823,4.599,3.823h26.452c2.254,0,4.189-1.606,4.599-3.823c0.207-1.108,0.311-2.229,0.311-3.334v-25.145 C399.85,391.673,391.713,383.539,381.713,383.539z M390.495,424.618h-17.563v-22.946c0-4.84,3.939-8.78,8.781-8.78 s8.782,3.938,8.782,8.78V424.618L390.495,424.618z"></path> <path d="M381.713,314.451c-10,0-18.136,8.135-18.136,18.133v25.146c0,1.104,0.104,2.226,0.311,3.333 c0.411,2.215,2.346,3.822,4.599,3.822h26.452c2.254,0,4.189-1.607,4.599-3.822c0.207-1.107,0.311-2.229,0.311-3.333v-25.146 C399.85,322.585,391.713,314.451,381.713,314.451z M390.495,355.532h-17.563v-22.948c0-4.84,3.939-8.779,8.781-8.779 s8.782,3.938,8.782,8.779V355.532L390.495,355.532z"></path> <path d="M381.713,243.811c-10,0-18.136,8.135-18.136,18.135v25.146c0,1.103,0.104,2.223,0.311,3.331 c0.411,2.217,2.346,3.825,4.599,3.825h26.452c2.254,0,4.189-1.608,4.599-3.825c0.207-1.108,0.311-2.229,0.311-3.331v-25.146 C399.85,251.945,391.713,243.811,381.713,243.811z M390.495,284.888h-17.563v-22.945c0-4.84,3.939-8.781,8.781-8.781 s8.782,3.939,8.782,8.781V284.888L390.495,284.888z"></path> <path d="M452.995,381.868c-10,0-18.133,8.134-18.133,18.134v25.146c0,1.103,0.101,2.225,0.308,3.333 c0.414,2.215,2.348,3.821,4.598,3.821h26.452c2.254,0,4.19-1.606,4.6-3.821c0.207-1.108,0.311-2.23,0.311-3.333v-25.146 C471.132,390.001,462.995,381.868,452.995,381.868z M461.778,422.949h-17.562v-22.947c0-4.84,3.938-8.779,8.778-8.779 s8.782,3.938,8.782,8.779L461.778,422.949L461.778,422.949z"></path> <path d="M452.995,311.227c-10,0-18.133,8.135-18.133,18.135v25.146c0,1.103,0.101,2.225,0.308,3.333 c0.414,2.217,2.348,3.824,4.598,3.824h26.452c2.254,0,4.19-1.607,4.6-3.824c0.207-1.108,0.311-2.23,0.311-3.333v-25.146 C471.132,319.361,462.995,311.227,452.995,311.227z M461.778,352.306h-17.562V329.36c0-4.841,3.938-8.78,8.778-8.78 s8.782,3.938,8.782,8.78L461.778,352.306L461.778,352.306z"></path> <path d="M88.005,381.868c-9.999,0-18.135,8.134-18.135,18.134v25.146c0,1.103,0.105,2.225,0.311,3.333 c0.411,2.215,2.345,3.821,4.6,3.821h26.453c2.255,0,4.188-1.606,4.6-3.821c0.206-1.108,0.311-2.23,0.311-3.333v-25.146 C106.14,390.001,98.003,381.868,88.005,381.868z M96.785,422.949H79.223v-22.947c0-4.84,3.939-8.779,8.78-8.779 c4.843,0,8.782,3.938,8.782,8.779V422.949z"></path> <path d="M88.005,311.227c-9.999,0-18.135,8.135-18.135,18.135v25.146c0,1.103,0.105,2.225,0.311,3.333 c0.411,2.217,2.345,3.824,4.6,3.824h26.453c2.255,0,4.188-1.607,4.6-3.824c0.206-1.108,0.311-2.23,0.311-3.333v-25.146 C106.14,319.361,98.003,311.227,88.005,311.227z M96.785,352.306H79.223V329.36c0-4.841,3.939-8.78,8.78-8.78 c4.843,0,8.782,3.938,8.782,8.78V352.306z"></path> <path d="M522.399,458.585h-8.6v-296.96c0-2.205-1.538-4.109-3.693-4.573c-2.155-0.466-4.343,0.643-5.246,2.652l-6.43,14.269 l-6.182-14.214c-0.88-2.031-3.062-3.166-5.24-2.714c-2.171,0.451-3.725,2.364-3.725,4.579v89.75l-58.44-43.492L413.654,93.87 c-0.231-2.362-2.196-4.176-4.568-4.221c-0.03,0-0.058,0-0.091,0c-2.333,0-4.318,1.724-4.632,4.047l-12.214,89.858l-84.238-62.689 V49.893c0-2.205-1.538-4.109-3.694-4.573c-2.154-0.461-4.342,0.643-5.246,2.652l-6.429,14.27l-6.182-14.214 c-0.883-2.032-3.069-3.166-5.24-2.714s-3.724,2.364-3.724,4.579v48.263l-4.105-3.053c-1.652-1.233-3.927-1.233-5.582,0 l-4.102,3.053V49.893c0-2.215-1.556-4.127-3.726-4.579c-2.171-0.448-4.358,0.683-5.241,2.714l-6.182,14.214l-6.428-14.27 c-0.904-2.01-3.087-3.118-5.245-2.652c-2.156,0.464-3.695,2.369-3.695,4.573v70.971l-84.239,62.689l-12.213-89.858 c-0.321-2.353-2.412-4.139-4.722-4.047c-2.372,0.043-4.334,1.858-4.567,4.221L116.161,207.88l-58.444,43.494v-89.751 c0-2.215-1.556-4.128-3.724-4.579c-2.168-0.455-4.357,0.683-5.242,2.714l-6.18,14.214l-6.428-14.269 c-0.906-2.01-3.086-3.117-5.247-2.652c-2.156,0.463-3.695,2.369-3.695,4.573v296.96h-8.6C8.344,458.584,0,466.929,0,477.185 s8.343,18.603,18.601,18.603h503.796c10.26,0,18.604-8.347,18.604-18.603C541.001,466.93,532.657,458.585,522.399,458.585z M522.399,486.431H18.601c-5.097,0-9.246-4.146-9.246-9.246c0-5.099,4.149-9.245,9.246-9.245h13.277 c2.583,0,4.677-2.095,4.677-4.679V183.396l1.827,4.054c0.755,1.68,2.425,2.757,4.263,2.757c0.009,0,0.021,0,0.032,0 c1.851-0.012,3.52-1.115,4.257-2.813l1.428-3.282v76.574c0,1.768,0.999,3.385,2.578,4.18c1.581,0.795,3.473,0.628,4.892-0.426 l67.573-50.289c1.058-0.787,1.734-1.983,1.863-3.295l7.485-76.283l7.896,58.096c0.222,1.64,1.297,3.04,2.821,3.681 c1.525,0.641,3.279,0.429,4.605-0.56l92.483-68.825c1.186-0.883,1.885-2.273,1.885-3.753V71.666l1.826,4.054 c0.757,1.679,2.425,2.756,4.265,2.756c0.009,0,0.02,0,0.03,0c1.853-0.012,3.521-1.115,4.259-2.813l1.428-3.283v35.087 c0,1.769,0.997,3.385,2.576,4.18c1.582,0.795,3.476,0.628,4.893-0.427l8.779-6.532l8.78,6.532 c1.419,1.058,3.312,1.221,4.891,0.427c1.58-0.793,2.579-2.411,2.579-4.18V72.381l1.428,3.284c0.737,1.698,2.405,2.8,4.257,2.812 c1.844,0.028,3.535-1.068,4.294-2.756l1.827-4.054v51.548c0,1.479,0.697,2.871,1.886,3.753l92.48,68.825 c1.331,0.988,3.085,1.201,4.607,0.56c1.524-0.643,2.598-2.042,2.818-3.681l7.896-58.098l7.487,76.284 c0.128,1.311,0.808,2.509,1.863,3.296l67.57,50.287c1.419,1.055,3.315,1.22,4.893,0.426c1.581-0.793,2.576-2.41,2.576-4.18 v-76.574l1.429,3.284c0.739,1.697,2.408,2.8,4.261,2.812c0.009,0,0.019,0,0.03,0c1.84,0,3.508-1.077,4.264-2.756l1.826-4.054 v279.865c0,2.583,2.093,4.678,4.678,4.678h13.275c5.102,0,9.245,4.146,9.245,9.245 C531.647,482.284,527.499,486.431,522.399,486.431z"></path> </g> </g> </g></svg>